<?xml version="1.0" encoding="UTF-8"?>
<!DOCTYPE svg PUBLIC "-//W3C//DTD SVG 1.1//EN" "http://www.w3.org/Graphics/SVG/1.1/DTD/svg11.dtd">
<!-- Creator: CorelDRAW X7 -->
<svg xmlns="http://www.w3.org/2000/svg" xml:space="preserve" width="92.4989mm" height="103.482mm" version="1.1" style="shape-rendering:geometricPrecision; text-rendering:geometricPrecision; image-rendering:optimizeQuality; fill-rule:evenodd; clip-rule:evenodd"
viewBox="0 0 5601 6266"
 xmlns:xlink="http://www.w3.org/1999/xlink">
 <defs>
  <style type="text/css">
   <![CDATA[
    .str0 {stroke:#3E3D3B;stroke-width:60.5502;stroke-linecap:round;stroke-linejoin:round}
    .fil0 {fill:none}
   ]]>
  </style>
 </defs>
 <g id="Слой_x0020_1">
  <metadata id="CorelCorpID_0Corel-Layer"/>
  <path class="fil0 str0" d="M1115 617c-70,-93 -131,58 -210,14"/>
  <path class="fil0 str0" d="M936 1018c-128,-136 -122,80 -321,-19"/>
  <path class="fil0 str0" d="M907 680c-66,113 -274,65 -343,356l51 -37"/>
  <path class="fil0 str0" d="M712 1058c-100,190 -436,97 -530,591l79 -61"/>
  <path class="fil0 str0" d="M261 1588c222,19 288,104 504,11"/>
  <path class="fil0 str0" d="M682 2427c-117,36 -297,34 -652,-108 156,-77 196,-569 735,-720"/>
  <path class="fil0 str0" d="M682 2427c-142,-12 -358,316 -358,461 0,171 -344,50 -19,226 115,62 318,63 410,-49 13,-15 25,-15 44,-19"/>
  <path class="fil0 str0" d="M715 3065c-123,46 -162,343 -271,388 -74,30 -45,24 -128,34 1,8 189,48 226,48 120,0 212,-17 287,-120 8,-10 -1,-15 6,-19"/>
  <path class="fil0 str0" d="M846 3399c-94,130 -135,313 -130,472 3,119 -22,256 -120,326 -16,12 194,81 273,81 75,0 169,14 237,-23 0,0 29,-10 29,-10"/>
  <path class="fil0 str0" d="M1179 3186c39,137 222,230 348,219"/>
  <path class="fil0 str0" d="M1305 3555c156,124 212,193 411,193"/>
  <path class="fil0 str0" d="M1655 4575c-188,46 3,239 -116,329"/>
  <path class="fil0 str0" d="M1178 1276c-448,550 -515,1184 -420,1769m399 1189c161,327 320,570 382,670"/>
  <path class="fil0 str0" d="M1611 4783c78,105 -48,277 193,456l-15 -62"/>
  <path class="fil0 str0" d="M1580 648c-89,-58 -34,-37 -248,-114 -434,-156 -60,36 -66,320"/>
  <path class="fil0 str0" d="M4486 617c70,-93 131,58 210,14"/>
  <path class="fil0 str0" d="M4664 1018c128,-136 123,80 322,-19"/>
  <path class="fil0 str0" d="M4694 680c66,113 274,65 343,356l-51 -37"/>
  <path class="fil0 str0" d="M4889 1058c100,190 436,97 530,591l-79 -61"/>
  <path class="fil0 str0" d="M5340 1588c-222,19 -288,104 -504,11"/>
  <path class="fil0 str0" d="M4919 2427c117,36 296,34 652,-108 -156,-77 -196,-569 -735,-720"/>
  <path class="fil0 str0" d="M4919 2427c142,-12 357,316 357,461 0,171 345,50 20,226 -115,62 -318,63 -410,-49 -13,-15 -25,-15 -44,-19"/>
  <path class="fil0 str0" d="M4860 3065c123,46 162,343 272,388 73,30 44,24 127,34 -1,8 -189,48 -226,48 -120,0 -212,-17 -287,-120 -7,-10 2,-15 -5,-19"/>
  <path class="fil0 str0" d="M4729 3399c94,130 135,313 131,472 -3,119 22,256 119,326 17,12 -194,81 -272,81 -75,0 -170,14 -237,-23 0,0 -30,-10 -30,-10"/>
  <path class="fil0 str0" d="M3921 4575c188,46 -3,239 116,329"/>
  <path class="fil0 str0" d="M4470 1371c382,527 437,1123 347,1674m-399 1189c-161,327 -319,570 -381,670"/>
  <path class="fil0 str0" d="M3964 4783c-78,105 48,277 -192,456l14 -62"/>
  <path class="fil0 str0" d="M4034 661c88,-58 34,-37 248,-114 396,-143 119,5 72,248"/>
  <path class="fil0 str0" d="M2775 3005c-109,-43 -259,-90 -339,-178 -110,-168 159,-444 20,-757l-25 -55m0 0c17,-19 -54,-111 -68,-136 -203,-385 -665,-111 -533,166 75,157 461,126 601,-30zm991 1604c11,151 27,237 -55,369 -44,70 -67,71 -151,97 -256,80 -634,99 -881,-16 -157,-84 -127,-305 -119,-453m947 -1601c187,101 462,296 617,34 132,-223 -385,-604 -596,-110 -24,56 -15,56 -53,137 -159,378 72,414 47,683 -7,79 -76,112 -145,146 -81,40 -172,71 -258,100 8,219 25,417 28,640m-1663 -1157c261,108 440,342 627,543 241,256 93,213 184,453 68,180 266,123 434,124 164,2 232,17 387,36 62,8 197,-31 292,-35 117,-4 453,31 526,-33 60,-53 115,-329 182,-451 110,-202 399,-562 625,-622l57 -15"/>
  <path class="fil0 str0" d="M2813 306c820,963 1691,1385 1691,2350 0,1608 -1559,2211 -1691,2639 -167,-381 -1692,-1017 -1692,-2639 0,-965 900,-1422 1692,-2350z"/>
  <path class="fil0 str0" d="M4438 3186c-39,137 -222,230 -348,219"/>
  <path class="fil0 str0" d="M4312 3566c-156,124 -212,192 -411,192"/>
  <line class="fil0 str0" x1="2813" y1="306" x2="2813" y2= "1213" />
  <line class="fil0 str0" x1="2427" y1="721" x2="2427" y2= "1028" />
  <line class="fil0 str0" x1="3189" y1="705" x2="3189" y2= "1012" />
  <path class="fil0 str0" d="M3666 1165c556,-364 608,162 378,374"/>
  <path class="fil0 str0" d="M3480 993c1093,-747 1193,355 740,794"/>
  <path class="fil0 str0" d="M1945 1165c-535,-350 -585,156 -364,360"/>
  <path class="fil0 str0" d="M2171 979c-1093,-748 -1193,355 -740,793"/>
  <path class="fil0 str0" d="M1934 4889c-176,64 25,145 -145,288"/>
  <path class="fil0 str0" d="M1849 2078c-485,-82 8,-430 -299,-593"/>
  <path class="fil0 str0" d="M2190 1708c-339,-123 49,-279 -279,-556"/>
  <path class="fil0 str0" d="M3758 2113c485,-82 -8,-430 299,-593"/>
  <path class="fil0 str0" d="M3404 1707c339,-124 -48,-279 279,-556"/>
  <path class="fil0 str0" d="M2813 306c-182,-48 -1066,235 -1187,429"/>
  <path class="fil0 str0" d="M2813 306c182,-48 1065,235 1187,429"/>
  <path class="fil0 str0" d="M1882 5111c135,168 -84,439 334,721l-26 -97"/>
  <path class="fil0 str0" d="M2190 5735c105,-196 210,-224 210,-459"/>
  <path class="fil0 str0" d="M3692 5111c-135,168 83,439 -334,721l26 -97"/>
  <path class="fil0 str0" d="M3384 5735c-106,-196 -210,-224 -210,-459"/>
  <path class="fil0 str0" d="M3174 5276c-199,281 216,342 -403,960 -9,-173 -445,-405 -371,-960"/>
  <path class="fil0 str0" d="M2698 317c-47,-158 -541,78 -885,-235 -18,-16 -57,-39 -79,-52 -87,145 -232,450 -162,591 16,34 -6,17 28,48"/>
  <path class="fil0 str0" d="M2906 317c47,-158 541,78 885,-235 18,-16 57,-39 79,-52 87,145 232,450 162,591 -16,34 6,17 -28,48"/>
 </g>
</svg>
